<svg xmlns="http://www.w3.org/2000/svg" xml:space="preserve" width="38mm" height="116mm" style="shape-rendering:geometricPrecision; text-rendering:geometricPrecision; image-rendering:optimizeQuality; fill-rule:evenodd; clip-rule:evenodd"
viewBox="0 0 38 116">
 <defs>
  <style type="text/css">
   <![CDATA[
    .fil3 {fill:white}
    .fil0 {fill:#1CA342}
    .fil1 {fill:#DA2724}
    .fil4 {fill:#EC9735}
    .fil2 {fill:#F1BA31}
   ]]>
  </style>
 </defs>
 <g id="Layer_x0020_1">
  <metadata id="CorelCorpID_0Corel-Layer"/>
  <g id="_203110568">
   <polygon id="_235346608" class="fil0" points="28.5361,74.1594 28.5361,80.3012 29.0712,80.6256 29.6389,80.998 30.1925,81.3903 30.7313,81.8015 31.2548,82.2314 31.7622,82.679 32.2535,83.1441 32.7281,83.6263 33.186,84.1258 33.6256,84.6408 34.0474,85.1715 34.4509,85.7178 34.8354,86.279 35.1999,86.854 35.5449,87.4429 35.8693,88.0456 36.1728,88.661 36.4548,89.2885 36.7149,89.9279 36.9525,90.5789 37.1674,91.2411 37.3586,91.9133 37.5259,92.5952 37.6686,93.2858 37.7867,93.9855 37.879,94.6931 37.9458,95.4079 37.9861,96.1296 38,96.8678 37.9754,97.8388 37.9024,98.8088 37.7817,99.7656 37.6148,100.708 37.4026,101.635 37.1466,102.544 36.8479,103.433 36.5078,104.304 36.127,105.152 35.7077,105.978 35.2507,106.779 34.757,107.555 34.2277,108.306 33.6645,109.028 33.0683,109.722 32.4401,110.387 31.7808,111.02 31.0923,111.622 30.3751,112.19 29.6306,112.724 28.8596,113.223 28.0637,113.684 27.2441,114.107 26.4013,114.492 25.5365,114.836 24.6521,115.137 23.749,115.396 22.8281,115.61 21.891,115.779 20.9399,115.901 19.9755,115.975 18.9998,116 18.0237,115.975 17.0595,115.901 16.1081,115.779 15.1711,115.61 14.2501,115.396 13.347,115.137 12.4625,114.835 11.5982,114.492 10.7553,114.107 9.9356,113.684 9.1397,113.222 8.3688,112.724 7.6242,112.19 6.9071,111.622 6.2183,111.02 5.5596,110.387 4.9314,109.723 4.3351,109.029 3.7716,108.306 3.2427,107.555 2.7489,106.779 2.2917,105.977 1.8721,105.152 1.4919,104.303 1.1516,103.433 0.8531,102.543 0.597,101.635 0.385,100.709 0.2178,99.7656 0.0974,98.8084 0.0242,97.8384 0,96.8679 0.0136,96.1301 0.0538,95.4084 0.1204,94.6931 0.213,93.9855 0.3308,93.286 0.4737,92.5952 0.6409,91.913 0.8322,91.2413 1.0466,90.5797 1.2845,89.9282 1.5446,89.2883 1.8267,88.661 2.1299,88.0456 2.4548,87.4425 2.7999,86.8534 3.1644,86.279 3.5482,85.7184 3.9518,85.1719 4.3738,84.6407 4.8138,84.1256 5.2712,83.6265 5.7462,83.1439 6.2375,82.6788 6.7449,82.2314 7.2679,81.8017 7.8068,81.3904 8.3608,80.9979 8.9286,80.6256 9.4637,80.301 9.4637,74.1594 "/>
   <polygon id="_235346608_0" class="fil1" points="23.1251,0.9404 23.5357,1.1503 23.9342,1.379 24.3205,1.626 24.6937,1.8907 25.053,2.1719 25.3974,2.4691 25.7289,2.7831 26.0451,3.1135 26.3443,3.4568 26.6271,3.8146 26.8938,4.1868 27.143,4.5728 27.3739,4.971 27.5856,5.3811 27.7786,5.8033 27.9512,6.2373 28.1031,6.6812 28.2329,7.1341 28.341,7.5962 28.4259,8.0668 28.4874,8.5434 28.5246,9.0268 28.5362,9.4742 28.5362,25.0753 28.5361,25.0753 28.5361,24.7195 28.536,24.7195 28.536,24.72 9.4641,24.72 9.4641,25.0753 9.4638,25.0753 9.4638,9.4752 9.4751,9.0278 9.5123,8.5443 9.5737,8.0668 9.6589,7.5962 9.7665,7.1345 9.8966,6.6812 10.0485,6.2369 10.2212,5.8033 10.4137,5.3815 10.6256,4.9714 10.8565,4.5728 11.1059,4.1868 11.3722,3.8149 11.6557,3.4565 11.9553,3.1126 12.2711,2.7831 12.6014,2.4698 12.9464,2.1721 13.306,1.8905 13.6793,1.626 14.0652,1.3792 14.4639,1.1503 14.8747,0.9402 15.2971,0.7495 15.7301,0.5789 16.1729,0.429 16.6253,0.3004 17.0871,0.1937 17.5554,0.1101 18.0303,0.0493 18.5125,0.0124 19,0 19.4873,0.0124 19.9695,0.0493 20.4442,0.1101 20.9128,0.1937 21.3745,0.3005 21.8266,0.429 22.269,0.5787 22.7028,0.7495 "/>
   <polygon id="_203111048" class="fil2" points="9.464,49.4392 28.536,49.4392 28.536,74.1594 9.464,74.1594 "/>
   <path id="_203111312" class="fil3" d="M19 53.9068l-0.4035 0.0103 -0.399 0.0304 -0.3934 0.0502 -0.388 0.0695 -0.381 0.0884 -0.3737 0.1064 -0.3658 0.1242 -0.3581 0.1416 -0.3489 0.1584 -0.3394 0.1743 -0.3292 0.1901 -0.3193 0.2051 -0.3084 0.2201 -0.2969 0.234 -0.2849 0.2476 -0.2734 0.2612 -0.2603 0.2742 -0.2468 0.2859 -0.2333 0.2978 -0.2194 0.3094 -0.2044 0.3203 -0.1895 0.3303 -0.1737 0.3404 -0.158 0.3501 -0.1411 0.3592 -0.1238 0.367 -0.1061 0.3749 -0.0881 0.3823 -0.0692 0.3892 -0.0501 0.3946 -0.0304 0.4004 -0.0102 0.4047 0.0102 0.4048 0.0304 0.4003 0.0501 0.3946 0.0692 0.3893 0.0881 0.3823 0.1061 0.3748 0.1238 0.367 0.1411 0.3593 0.158 0.35 0.1737 0.3405 0.1895 0.3302 0.2044 0.3204 0.2194 0.3093 0.2333 0.2978 0.2468 0.2859 0.2603 0.2743 0.2734 0.2611 0.2849 0.2476 0.2969 0.234 0.3084 0.2201 0.3193 0.2051 0.3292 0.1901 0.3394 0.1743 0.3489 0.1585 0.3581 0.1415 0.3658 0.1242 0.3737 0.1065 0.381 0.0884 0.388 0.0694 0.3934 0.0502 0.399 0.0305 0.4035 0.0103 0.4035 -0.0103 0.399 -0.0305 0.3934 -0.0502 0.388 -0.0694 0.381 -0.0884 0.3737 -0.1065 0.3658 -0.1242 0.3581 -0.1415 0.3489 -0.1585 0.3394 -0.1743 0.3292 -0.1901 0.3193 -0.2051 0.3084 -0.2201 0.2969 -0.234 0.2849 -0.2476 0.2734 -0.2611 0.2603 -0.2743 0.2468 -0.2859 0.2333 -0.2978 0.2194 -0.3093 0.2044 -0.3204 0.1895 -0.3302 0.1737 -0.3405 0.158 -0.35 0.1411 -0.3593 0.1238 -0.367 0.1061 -0.3748 0.0881 -0.3823 0.0692 -0.3893 0.0501 -0.3946 0.0304 -0.4003 0.0102 -0.4048 -0.0102 -0.4047 -0.0304 -0.4004 -0.0501 -0.3946 -0.0692 -0.3892 -0.0881 -0.3823 -0.1061 -0.3749 -0.1238 -0.367 -0.1411 -0.3592 -0.158 -0.3501 -0.1737 -0.3404 -0.1895 -0.3303 -0.2044 -0.3203 -0.2194 -0.3094 -0.2333 -0.2978 -0.2468 -0.2859 -0.2603 -0.2742 -0.2734 -0.2612 -0.2849 -0.2476 -0.2969 -0.234 -0.3084 -0.2201 -0.3193 -0.2051 -0.3292 -0.1901 -0.3394 -0.1743 -0.3489 -0.1584 -0.3581 -0.1416 -0.3658 -0.1242 -0.3737 -0.1064 -0.381 -0.0884 -0.388 -0.0695 -0.3934 -0.0502 -0.399 -0.0304 -0.4035 -0.0103zm0 1.4802c-3.5298,0 -6.3918,2.8712 -6.3918,6.4123 0,3.5412 2.862,6.4123 6.3918,6.4123 3.5298,0 6.3918,-2.8711 6.3918,-6.4123 0,-3.5411 -2.862,-6.4123 -6.3918,-6.4123zm-2.6632 5.0763c0,-0.4428 0.3579,-0.8015 0.7991,-0.8015 0.441,0 0.7989,0.3585 0.7989,0.8015 0,0.4431 -0.3579,0.8016 -0.7989,0.8016 -0.4412,0 -0.7991,-0.3585 -0.7991,-0.8016zm4.7937 4.0078l-4.261 0 0 -1.0688 4.261 0.0002 0 1.0688 0 -0.0002zm-0.2664 -3.2062c-0.441,0 -0.7989,-0.3585 -0.7989,-0.8016 0,-0.443 0.3579,-0.8015 0.7989,-0.8015 0.4412,0 0.7991,0.3585 0.7991,0.8015 0,0.4431 -0.3579,0.8016 -0.7991,0.8016z"/>
   <polygon id="_203111120" class="fil4" points="9.464,24.7195 28.536,24.7195 28.536,49.4397 9.464,49.4397 "/>
   <path id="_203110280" class="fil3" d="M19 29.187l-0.4035 0.0103 -0.399 0.0305 -0.3934 0.0502 -0.388 0.0694 -0.381 0.0884 -0.3737 0.1065 -0.3658 0.1242 -0.3581 0.1415 -0.3489 0.1585 -0.3394 0.1743 -0.3292 0.1901 -0.3193 0.2051 -0.3084 0.2201 -0.2969 0.234 -0.2849 0.2476 -0.2734 0.2611 -0.2603 0.2743 -0.2468 0.2859 -0.2333 0.2978 -0.2194 0.3094 -0.2044 0.3203 -0.1895 0.3303 -0.1737 0.3404 -0.158 0.35 -0.1411 0.3593 -0.1238 0.367 -0.1061 0.3748 -0.0881 0.3823 -0.0692 0.3893 -0.0501 0.3946 -0.0304 0.4003 -0.0102 0.4048 0.0102 0.405 0.0304 0.4002 0.0501 0.3949 0.0692 0.3889 0.0881 0.3826 0.1061 0.3749 0.1239 0.3671 0.141 0.3589 0.1579 0.3502 0.1737 0.3403 0.1896 0.3307 0.2045 0.3201 0.2193 0.3093 0.2333 0.2977 0.247 0.2862 0.2601 0.2736 0.273 0.2613 0.285 0.2477 0.2972 0.2344 0.3086 0.22 0.3191 0.2052 0.3294 0.19 0.3396 0.1744 0.3483 0.1579 0.3579 0.1419 0.3665 0.1242 0.3738 0.1065 0.3808 0.0881 0.3878 0.0696 0.3936 0.0501 0.399 0.0305 0.4033 0.0101 0.4033 -0.0101 0.399 -0.0305 0.3936 -0.0501 0.3878 -0.0696 0.3808 -0.0881 0.3738 -0.1065 0.3665 -0.1242 0.3579 -0.1419 0.3483 -0.1579 0.3396 -0.1744 0.3294 -0.19 0.3191 -0.2052 0.3086 -0.22 0.2972 -0.2344 0.285 -0.2477 0.273 -0.2613 0.2601 -0.2736 0.247 -0.2862 0.2333 -0.2977 0.2193 -0.3093 0.2045 -0.3201 0.1896 -0.3307 0.1737 -0.3403 0.1579 -0.3502 0.141 -0.3589 0.1239 -0.3671 0.1061 -0.3749 0.0881 -0.3826 0.0692 -0.3889 0.0501 -0.3949 0.0304 -0.4002 0.0102 -0.405 -0.0102 -0.4048 -0.0304 -0.4003 -0.0501 -0.3946 -0.0692 -0.3893 -0.0881 -0.3823 -0.1061 -0.3748 -0.1238 -0.367 -0.1411 -0.3593 -0.158 -0.35 -0.1737 -0.3404 -0.1895 -0.3303 -0.2044 -0.3203 -0.2194 -0.3094 -0.2333 -0.2978 -0.2468 -0.2859 -0.2603 -0.2743 -0.2734 -0.2611 -0.2849 -0.2476 -0.2969 -0.234 -0.3084 -0.2201 -0.3193 -0.2051 -0.3292 -0.1901 -0.3394 -0.1743 -0.3489 -0.1585 -0.3581 -0.1415 -0.3658 -0.1242 -0.3737 -0.1065 -0.381 -0.0884 -0.388 -0.0694 -0.3934 -0.0502 -0.399 -0.0305 -0.4035 -0.0103zm0 1.4803c-3.5298,0 -6.3918,2.8711 -6.3918,6.4123 0,3.5411 2.862,6.4123 6.3918,6.4123 3.5298,0 6.3918,-2.8712 6.3918,-6.4123 0,-3.5412 -2.862,-6.4123 -6.3918,-6.4123zm1.8641 4.2749c0.4412,0 0.7991,0.3585 0.7991,0.8016 0,0.4431 -0.3579,0.8016 -0.7991,0.8016 -0.441,0 -0.7989,-0.3585 -0.7989,-0.8016 0,-0.4431 0.3579,-0.8016 0.7989,-0.8016zm-3.7282 0c0.441,0 0.7989,0.3585 0.7989,0.8016 0,0.4431 -0.3579,0.8016 -0.7989,0.8016 -0.4412,0 -0.7991,-0.3585 -0.7991,-0.8016 0,-0.4431 0.3579,-0.8016 0.7991,-0.8016zm4.326 5.0107c-0.6851,-0.4376 -1.4551,-0.699 -2.4619,-0.699 -1.0068,0 -1.777,0.2614 -2.4619,0.699l-0.2508 -0.31c0.5049,-0.6204 1.4705,-1.4945 2.7127,-1.4945 1.2422,0 2.2078,0.8743 2.7127,1.4945l-0.2508 0.31z"/>
   <path id="_203110064" class="fil3" d="M19 4.6452l-0.4035 0.0102 -0.399 0.0305 -0.3934 0.0502 -0.388 0.0695 -0.381 0.0884 -0.3737 0.1064 -0.3658 0.1242 -0.3581 0.1416 -0.3489 0.1584 -0.3394 0.1743 -0.3292 0.1901 -0.3193 0.2051 -0.3084 0.2201 -0.2969 0.234 -0.2849 0.2476 -0.2734 0.2611 -0.2603 0.2743 -0.2468 0.2859 -0.2333 0.2978 -0.2194 0.3094 -0.2044 0.3203 -0.1895 0.3303 -0.1737 0.3404 -0.158 0.35 -0.1411 0.3593 -0.1238 0.367 -0.1061 0.3749 -0.0881 0.3822 -0.0692 0.3893 -0.0501 0.3946 -0.0304 0.4003 -0.0102 0.4048 0.0102 0.4051 0.0304 0.4001 0.0501 0.3949 0.0692 0.389 0.0881 0.3825 0.1061 0.3749 0.1239 0.3671 0.141 0.359 0.1579 0.3501 0.1737 0.3403 0.1896 0.3307 0.2045 0.3201 0.2193 0.3093 0.2333 0.2977 0.247 0.2862 0.2601 0.2737 0.273 0.2612 0.285 0.2477 0.2972 0.2344 0.3086 0.22 0.3191 0.2052 0.3294 0.19 0.3396 0.1744 0.3483 0.1579 0.3579 0.1419 0.3665 0.1242 0.3738 0.1065 0.3808 0.0881 0.3878 0.0696 0.3936 0.0501 0.399 0.0305 0.4033 0.0101 0.4033 -0.0101 0.399 -0.0305 0.3936 -0.0501 0.3878 -0.0696 0.3808 -0.0881 0.3738 -0.1065 0.3665 -0.1242 0.3579 -0.1419 0.3483 -0.1579 0.3396 -0.1744 0.3294 -0.19 0.3191 -0.2052 0.3086 -0.22 0.2972 -0.2344 0.285 -0.2477 0.273 -0.2612 0.2601 -0.2737 0.247 -0.2862 0.2333 -0.2977 0.2193 -0.3093 0.2045 -0.3201 0.1896 -0.3307 0.1737 -0.3403 0.1579 -0.3501 0.141 -0.359 0.1239 -0.3671 0.1061 -0.3749 0.0881 -0.3825 0.0692 -0.389 0.0501 -0.3949 0.0304 -0.4001 0.0102 -0.4051 -0.0102 -0.4048 -0.0304 -0.4003 -0.0501 -0.3946 -0.0692 -0.3893 -0.0881 -0.3822 -0.1061 -0.3749 -0.1238 -0.367 -0.1411 -0.3593 -0.158 -0.35 -0.1737 -0.3404 -0.1895 -0.3303 -0.2044 -0.3203 -0.2194 -0.3094 -0.2333 -0.2978 -0.2468 -0.2859 -0.2603 -0.2743 -0.2734 -0.2611 -0.2849 -0.2476 -0.2969 -0.234 -0.3084 -0.2201 -0.3193 -0.2051 -0.3292 -0.1901 -0.3394 -0.1743 -0.3489 -0.1584 -0.3581 -0.1416 -0.3658 -0.1242 -0.3737 -0.1064 -0.381 -0.0884 -0.388 -0.0695 -0.3934 -0.0502 -0.399 -0.0305 -0.4035 -0.0102zm0 1.4802c-3.5298,0 -6.3918,2.8711 -6.3918,6.4123 0,3.5412 2.862,6.4123 6.3918,6.4123 3.5298,0 6.3918,-2.8711 6.3918,-6.4123 0,-3.5412 -2.862,-6.4123 -6.3918,-6.4123zm1.8919 6.5251c0.3103,1.0619 1.2415,1.5929 1.2415,2.1239 0,0.531 -0.3103,1.062 -1.2415,1.062 -0.9313,0 -1.2416,-0.531 -1.2416,-1.062 0,-0.531 0.9311,-1.062 1.2416,-2.1239zm-1.4721 2.0773l-0.0025 -0.0631 0.004 -0.0711 0.0119 -0.071 0.0182 -0.0684 0.0238 -0.0654 0.0282 -0.063 0.0321 -0.0608 0.0353 -0.0591 0.0381 -0.0575 0.0404 -0.0569 0.0428 -0.0562 0.0445 -0.0561 0.0461 -0.056 0.0475 -0.0562 0.0486 -0.0566 0.0379 -0.0439c-0.2844,-0.0999 -0.591,-0.16 -0.9167,-0.16 -1.2421,0 -2.2078,0.8741 -2.7128,1.4945l0.251 0.31c0.6848,-0.4376 1.455,-0.6989 2.4618,-0.6989 0.1447,0 0.2844,0.0053 0.4198,0.0157zm1.4444 -4.3275c0.4411,0 0.799,0.3585 0.799,0.8017 0,0.443 -0.3579,0.8015 -0.799,0.8015 -0.4411,0 -0.799,-0.3585 -0.799,-0.8015 0,-0.4432 0.3579,-0.8017 0.799,-0.8017zm-3.7284 0c0.4411,0 0.799,0.3585 0.799,0.8017 0,0.443 -0.3579,0.8015 -0.799,0.8015 -0.4411,0 -0.799,-0.3585 -0.799,-0.8015 0,-0.4432 0.3579,-0.8017 0.799,-0.8017z"/>
   <path id="_203110640" class="fil3" d="M19 82.4481l-0.7317 0.0184 -0.7234 0.0552 -0.7138 0.0908 -0.7025 0.1261 -0.6901 0.1596 -0.6776 0.1931 -0.6633 0.2252 -0.6482 0.2565 -0.6319 0.2865 -0.6152 0.3161 -0.5972 0.3445 -0.5786 0.3722 -0.5587 0.3986 -0.5386 0.4246 -0.5169 0.4491 -0.4949 0.4735 -0.4716 0.4963 -0.4477 0.5186 -0.4232 0.5399 -0.3975 0.5608 -0.3708 0.5803 -0.3433 0.5991 -0.3152 0.6169 -0.2859 0.6345 -0.2554 0.65 -0.2245 0.6654 -0.1923 0.6794 -0.1596 0.693 -0.1253 0.7047 -0.0907 0.7158 -0.055 0.7255 -0.0186 0.7347 0.0186 0.7343 0.055 0.7257 0.0907 0.7156 0.1254 0.705 0.1595 0.6926 0.1923 0.6795 0.2245 0.6651 0.2553 0.6504 0.2861 0.6343 0.3151 0.6171 0.3433 0.5989 0.3708 0.5806 0.3975 0.5606 0.4231 0.5401 0.4476 0.5183 0.4718 0.4968 0.4952 0.4733 0.5167 0.4491 0.5384 0.4244 0.5588 0.3988 0.5787 0.3721 0.597 0.3443 0.6151 0.3161 0.6323 0.287 0.6483 0.2562 0.663 0.2252 0.6773 0.1929 0.6904 0.16 0.7027 0.1258 0.7133 0.091 0.7234 0.0552 0.732 0.0187 0.732 -0.0187 0.7234 -0.0552 0.7133 -0.091 0.7027 -0.1258 0.6904 -0.16 0.6773 -0.1929 0.663 -0.2252 0.6483 -0.2562 0.6323 -0.287 0.6151 -0.3161 0.597 -0.3443 0.5787 -0.3721 0.5588 -0.3988 0.5384 -0.4244 0.5167 -0.4491 0.4952 -0.4733 0.4718 -0.4968 0.4476 -0.5183 0.4231 -0.5401 0.3975 -0.5606 0.3708 -0.5806 0.3433 -0.5989 0.3151 -0.6171 0.2861 -0.6343 0.2553 -0.6504 0.2245 -0.6651 0.1923 -0.6795 0.1595 -0.6926 0.1254 -0.705 0.0907 -0.7156 0.055 -0.7257 0.0186 -0.7343 -0.0186 -0.7347 -0.055 -0.7255 -0.0907 -0.7158 -0.1253 -0.7047 -0.1596 -0.693 -0.1923 -0.6794 -0.2245 -0.6654 -0.2554 -0.65 -0.2859 -0.6345 -0.3152 -0.6169 -0.3433 -0.5991 -0.3708 -0.5803 -0.3975 -0.5608 -0.4232 -0.5399 -0.4477 -0.5186 -0.4716 -0.4963 -0.4949 -0.4735 -0.5169 -0.4491 -0.5386 -0.4246 -0.5587 -0.3986 -0.5786 -0.3722 -0.5972 -0.3445 -0.6152 -0.3161 -0.6319 -0.2865 -0.6482 -0.2565 -0.6633 -0.2252 -0.6776 -0.1931 -0.6901 -0.1596 -0.7025 -0.1261 -0.7138 -0.0908 -0.7234 -0.0552 -0.7317 -0.0184zm0 1.9736c-6.7883,0 -12.2919,5.5212 -12.2919,12.3313 0,6.81 5.5036,12.3313 12.2919,12.3313 6.7883,0 12.2919,-5.5213 12.2919,-12.3313 0,-6.8101 -5.5036,-12.3313 -12.2919,-12.3313zm3.585 8.221c0.8481,0 1.5365,0.6894 1.5365,1.5415 0,0.8521 -0.6884,1.5415 -1.5365,1.5415 -0.8482,0 -1.5366,-0.6894 -1.5366,-1.5415 0,-0.8521 0.6884,-1.5415 1.5366,-1.5415zm-7.17 0c0.8482,0 1.5366,0.6894 1.5366,1.5415 0,0.8521 -0.6884,1.5415 -1.5366,1.5415 -0.8481,0 -1.5365,-0.6894 -1.5365,-1.5415 0,-0.8521 0.6884,-1.5415 1.5365,-1.5415zm3.5862 10.2759c-2.8691,0 -4.9927,-1.8968 -6.1471,-3.6644l0.5048 -0.5064c1.549,1.228 3.2513,1.9843 5.6418,1.9843 2.3899,0 4.091,-0.7563 5.64,-1.9843l0.5048 0.5064c-1.1544,1.7676 -3.2768,3.6644 -6.1448,3.6644l0.0005 0z"/>
  </g>
 </g>
</svg>
